<svg version="1" xmlns="http://www.w3.org/2000/svg" width="1445.333" height="1445.333" viewBox="0 0 1084.000000 1084.000000"><path d="M40 206.2c0 .4-.7.5-1.5.2-2.4-1-9.6 3.8-11.6 7.8-1.9 3.6-1.9 11.6-1.9 327.1 0 240.9.3 324.3 1.1 326.8 2.5 7.4 7.8 10 20.7 10 5.3.1 10.2 0 10.7-.1.6-.1 1.5-.1 2 0 3.2.7 5.6.6 6.1-.2.3-.4 1-.5 1.6-.2.9.6 19.6.9 22.3.4.6-.2 1.5-.1 2 0 3.2.7 5.6.6 6.1-.2.3-.4 1-.5 1.6-.2.9.6 19.6.9 22.3.4.6-.2 1.4-.2 2 0 1.1.2 20.6.2 22-.1.6-.1 1.5 0 2 .1 1.2.3 20.6.2 22 0 .6-.2 1.4-.2 2 0 1.1.2 68.5.1 70-.1.6-.1 1.5 0 2 .1 1.2.3 20.6.2 22 0 .6-.2 1.4-.2 2 0 1.1.2 68.5.1 70-.1.6-.1 1.5 0 2 .1 1.2.3 20.6.2 22 0 .6-.2 1.4-.2 2 0 1.1.2 20.6.2 22-.1.6-.1 1.5 0 2 .1 1.2.3 20.6.2 22 0 .6-.2 1.5-.1 2 0 3.2.7 5.6.6 6.1-.2.3-.4 1-.5 1.6-.2.9.6 19.6.9 22.3.4.6-.2 1.5-.1 2 0 3.2.7 5.6.6 6.1-.2.3-.4 1-.5 1.6-.2.9.6 19.6.9 22.3.4.6-.2 1.5-.1 2 0 3.2.7 5.6.6 6.1-.2.3-.4 1-.5 1.6-.2.9.6 19.6.9 22.3.4.6-.2 1.5-.1 2 0 1.1.2 53.7.1 54.5-.1.3-.1 1 0 1.5.1 1.2.3 20.6.2 22 0 .6-.2 1.4-.1 2 0 1.2.2 100.5.2 102-.1.6-.1 1.5 0 2 .1 1.2.3 20.6.2 22 0 .6-.2 1.4-.2 1.9-.1 1.2.3 52.9.3 54.1 0 .6-.1 1.5 0 2 .1 1.2.3 20.6.2 22 0 .6-.2 1.5-.1 2 0 3.2.7 5.6.6 6.1-.2.3-.4 1-.5 1.6-.2.9.6 19.6.9 22.3.4.6-.2 1.5-.1 2 0 3.2.7 5.6.6 6.1-.2.3-.4 1-.5 1.6-.2.9.6 19.6.9 22.3.4.6-.2 1.5-.1 2 0 3.2.7 5.6.6 6.1-.2.3-.4 1-.5 1.6-.2.9.6 19.6.9 22.3.4.6-.2 1.4-.2 2 0 1.1.2 20.6.2 22-.1.6-.1 1.5 0 2 .1 1.2.3 20.6.2 22 0 .6-.2 1.4-.2 2 0 1.1.2 68.5.1 70-.1.6-.1 1.5 0 2 .1 1.2.3 20.6.2 22 0 .6-.2 1.5-.1 2 0 1.1.3 8.3 0 10.5-.4 5.9-1 8.6-3 11.4-8.4 1.5-2.8 1.6-31.3 1.6-327.2 0-297.1-.1-324.4-1.6-327.3-3.8-7.2-7.7-8.7-23.9-8.8-6.9-.1-12.9.1-13.2.4-.3.4-1.4.2-2.5-.4-1.3-.7-2.3-.7-3.2 0-.7.6-1.5.8-1.8.5-.7-.7-39.8-.7-40.5 0-.3.3-1.4.1-2.5-.5-1.3-.7-2.3-.7-3.2 0-.7.6-1.6.8-1.9.5-.3-.3-4-.5-8.1-.5-4.2.1-8.3.2-9.1.2h-40c-7.9 0-7.6 0-20.3-.2-5.7 0-10.6.2-10.9.5-.3.3-1.4.1-2.5-.5-1.3-.7-2.3-.7-3.2 0-.7.6-1.5.8-1.8.5-.7-.7-39.8-.7-40.5 0-.3.3-1.4.1-2.5-.5-1.3-.7-2.3-.7-3.2 0-.7.6-1.5.8-1.8.5-.7-.7-39.8-.7-40.5 0-.3.3-1.4.1-2.5-.5-1.3-.7-2.3-.7-3.2 0-.7.6-1.5.8-1.8.5-.7-.7-39.8-.7-40.5 0-.3.3-1.4.1-2.5-.5-1.3-.7-2.3-.7-3.2 0-.7.6-1.5.8-1.8.6-.7-.7-55.8-.8-56.5-.1-.3.3-1.4.1-2.5-.5-1.3-.7-2.3-.7-3.2 0-.7.6-1.5.8-1.8.6-.7-.7-55.8-.8-56.5-.1-.3.3-1.4.1-2.5-.5-1.3-.7-2.3-.7-3.2 0-.7.6-1.5.8-1.8.6-.7-.7-55.8-.8-56.5-.1-.3.3-1.4.1-2.5-.5-1.3-.7-2.3-.7-3.2 0-.7.6-1.5.8-1.8.5-.7-.7-39.8-.7-40.5 0-.3.3-1.4.1-2.5-.5-1.3-.7-2.3-.7-3.2 0-.7.6-1.5.8-1.8.5-.7-.7-39.8-.7-40.5 0-.3.3-1.4.1-2.5-.5-1.3-.7-2.3-.7-3.2 0-.7.6-1.5.8-1.8.5-.7-.7-39.8-.7-40.5 0-.3.3-1.4.1-2.5-.5-1.3-.7-2.3-.7-3.2 0-.7.6-1.6.8-1.9.5-.3-.3-4-.5-8.1-.5-4.2.1-8.3.2-9.1.2h-40c-7.9 0-7.6 0-20.3-.2-5.7 0-10.6.2-10.9.5-.3.3-1.4.1-2.5-.5-1.3-.7-2.3-.7-3.2 0-.7.6-1.5.8-1.8.5-.7-.7-39.8-.7-40.5 0-.3.3-1.4.1-2.5-.5-1.3-.7-2.3-.7-3.2 0-.7.6-1.5.8-1.8.5-.7-.7-39.8-.7-40.5 0-.3.3-1.4.1-2.5-.5-1.3-.7-2.3-.7-3.2 0-.7.6-1.6.8-1.9.5-.3-.3-4-.5-8.1-.5-4.2.1-8.3.2-9.1.2h-40c-7.9 0-7.6 0-20.3-.2-5.7 0-10.6.2-10.9.5-.3.3-1.4.1-2.5-.5-1.3-.7-2.3-.7-3.2 0-.7.6-1.5.8-1.8.5-.7-.7-39.8-.7-40.5 0-.3.3-1.4.1-2.5-.5-1.3-.7-2.3-.7-3.2 0-.7.6-1.5.8-1.9.5-.8-.9-12.7-1-12.7-.2zm66.7 30.2c.7.3 1.3.2 1.3-.2 0-.8 92.4-.6 94.6.2.8.3 1.4.2 1.4-.2 0-.8 92.4-.6 94.6.2.8.3 1.4.2 1.4-.2 0-.8 92.4-.6 94.6.2.8.3 1.4.2 1.4-.2 0-.8 92.4-.6 94.6.2.8.3 1.4.2 1.4-.2 0-.8 284.3-.7 286.5.2.8.3 1.5.2 1.5-.2 0-.8 92.4-.6 94.6.2.8.3 1.4.2 1.4-.2 0-.8 92.4-.6 94.6.2.8.3 1.4.2 1.4-.2 0-.5 25.3-.7 54.3-.2h2.7v612.5l-7.7-.2c-4.3-.2-10-.3-12.8-.2h-6.2c-2.5-.2-4.1-.2-21.3-.2h-19c-.8 0-6 .1-11.5.2s-10.4 0-11-.1c-.5-.1-1.2-.2-1.5-.1-.8.3-29.4.3-30.5.1-.5-.1-1.2-.2-1.5-.1-1.9.6-16 .4-16-.2 0-.5-.5-.5-1.1-.2-.5.4-9.4.6-19.7.5-21.5-.1-22.7-.1-34.5.2-4.8.2-8.7-.1-8.7-.5 0-.5-.5-.5-1.1-.2-.5.4-9.2.6-19.2.6-10-.1-19.5-.2-21.2-.2-3.8 0-43.7.1-48.8.1-2.2 0-4.3.2-4.8.6-.5.3-.9 0-.9-.6s-.5-.8-1-.5c-.6.4-8.8.6-18.3.6h-28.4c-2.5-.2-4.1-.2-21.3-.2h-35c-8 .1-16.2.1-18.3.1-2.2 0-4.3.2-4.8.6-.5.3-.9 0-.9-.6s-.5-.8-1-.5c-.6.4-8.8.6-18.3.6h-28.4c-.7-.1-1.9-.1-2.5-.1-1.1-.1-28.4-.1-40.1 0-2.2 0-4.3.2-4.8.6-.5.3-.9 0-.9-.6s-.5-.8-1.1-.5c-.5.4-9.4.6-19.7.5-21.5-.1-22.7-.1-34.5.2-4.8.2-8.7-.1-8.7-.5 0-.5-.5-.5-1.1-.2-.5.4-9.2.6-19.2.6-23.7-.2-21.7-.2-40.7 0-9.1 0-16.9 0-17.5-.1-.5-.1-1.2-.2-1.5-.1-.8.3-29.4.3-30.5.1-.5-.1-1.2-.2-1.5-.1-.3.1-9.3.2-20 .1-23.9-.1-26.1 0-27.2.6-.4.3-.8 0-.8-.6s-.5-.8-1-.5c-.6.4-8.8.6-18.3.6h-28.4c-2.5-.2-4.1-.2-21.3-.2h-19c-.8 0-6 .1-11.5.2s-10.4 0-11-.1c-.5-.1-1.2-.2-1.5-.1-.8.3-29.4.3-30.5.1-.5-.1-1.2-.2-1.5-.1-1.9.6-16 .4-16-.2 0-.5-.5-.5-1.1-.2-.9.6-32.6.8-41.7.3-2.3-.2-4.2-.1-4.2.2 0 .4-10.8.4-18.7.1-1-.1-1.3-62-1.3-306v-306l3.8-.3c5.8-.5 46.3 0 47.9.6z"/><path d="M176.5 290.1c-4.3.8-8 1.7-8 1.9 0 .1-.9.3-2 .5-4.6.9-14.4 7.3-20.6 13.4-11.1 11.1-16.6 25.3-15.6 40.4.7 11.7 2.7 18.8 6.9 24.9 1 1.4 1.8 2.9 1.8 3.2 0 .6 3.3 4.5 8 9.5 5.3 5.5 13.2 9.8 25.7 13.9 1.8.5 7.9.9 13.5.7 10-.3 11-.5 22.8-5.3 4.8-1.9 15.2-10.5 19.1-15.8 4.2-5.8 8.2-13.9 9.5-19.4.4-1.9.9-4.2 1.1-5 .6-2.6.4-16.4-.2-19-.3-1.4-.8-3.6-1.1-5-.3-1.3-1-3-1.6-3.7-.6-.7-.8-1.3-.4-1.3.7 0-3.4-7.7-6-11.5-.8-1.1-3.9-4.6-7-7.7-5.4-5.4-16.9-12.3-22.6-13.3-1.2-.3-3.6-.8-5.3-1.1-4.4-1-13.4-1.1-18-.3zM337.8 291.1c-8.9 2.1-19 7.4-24.7 12.9-5.6 5.4-13.5 17.7-14.6 22.9-.2.9-1 3.8-1.7 6.6-1.4 5.6-1.6 11.4-.4 19.3 3.9 26 27.4 46.1 54.1 46.2 29.6 0 54.8-25.1 54.6-54.5-.1-3.9-.3-7.9-.5-9-2.5-12.6-7.2-21.3-16-30-14-13.8-31.9-18.8-50.8-14.4zM461.9 289.5c-.1 0-.2 24.4-.3 54.2-.2 48.2 0 54.3 1.4 54.7 1.3.3 322.1.1 324.5-.3 1.2-.1 1.4-106.5.3-107.7-.6-.5-125-.9-325.9-.9zM893.7 289.6c-.1.1-2 .5-4.2.8-5.3.9-7 1.4-13.5 4.3-6.8 3.1-20 13.8-20 16.3 0 .6-.4 1-1 1-.5 0-1 .7-1 1.5s-.4 1.5-.8 1.5c-.8 0-2 2.5-5.6 11.3-3.3 8.1-3.8 21.5-1.1 31.7 4.6 18 19.1 32.9 37.5 38.8 8.5 2.6 19.8 2.6 31.5-.2 3.2-.7 8.5-3.1 8.5-3.8 0-.4.7-.8 1.5-.8 1.2 0 10.3-6.8 14.1-10.4 3-3 8.4-11.9 10.7-17.7 4.6-11.5 5-25.5 1.1-36.4-.8-2.2-1.6-4.5-1.7-5.1-.7-3.3-8.4-13.8-13.3-18.4-6.3-5.7-15.3-10.8-22.6-12.8-.5-.1-.9-.2-1-.3-2.1-.7-18.5-1.8-19.1-1.3zM170.5 488.9c-13.7 3.9-24.3 11.7-32 23.6-16 24.8-8.9 58.2 16.1 75.1 4.1 2.8 15.7 7.4 20.3 8.1 7.8 1.2 22.2.3 26.6-1.6 12.6-5.6 16.6-8.2 23.7-15.5 6.2-6.4 11.7-17.7 13.5-27.3 1-5.5.6-17.1-.7-22.3-3.8-15.1-16.1-30.1-30-36.7-10.6-5-26.5-6.5-37.5-3.4zM334.2 489.6c-14.9 4.9-26.3 14.7-32.8 28.4-3.2 6.6-3.9 8.7-5 15.6-1.4 8.1-.2 19.9 2.7 26.9.7 1.6 1.3 3.6 1.5 4.4.6 2.9 9 13.8 14.1 18.3 7.3 6.3 17.6 11.2 26 12.4 27.1 4.1 50.6-9.2 60.8-34.1 2.6-6.4 2.9-8.1 2.9-19 0-6.6-.5-13.6-1.1-15.5-2.3-8.1-8.2-18.1-13.7-23.5-4.1-4-11.6-9.8-11.6-9 0 .3-1.2-.2-2.7-1.3-8.8-6-28.4-7.7-41.1-3.6zM507.8 487.5c-.2.2-1.8.6-3.6 1-14.3 2.5-29.7 14.6-36.6 28.7-2 4-3.8 8.2-4 9.3-.3 1.1-.8 3.8-1.3 6-1 4.4-.9 12.5.1 19.2 2.7 17.8 17.8 35.5 35.8 41.9 12.3 4.3 28.1 3.7 39.5-1.6 2.4-1.1 4.5-2 4.8-2 1.5 0 11.7-8.4 15.3-12.6 10.4-12.2 15.5-31 12.2-45.9-1.3-6.1-4.8-15.2-6.9-18.1-.9-1.2-2.3-3.2-3.1-4.4-6.4-9.4-20.2-18.2-32.3-20.8-4.6-.9-19.1-1.4-19.9-.7zM627.6 489c-.6 1.9-.6 104-.1 106 .4 1.3 19.1 1.5 161.2 1.3 88.5-.1 161.9-.2 163.3-.2l2.5-.1-.2-52.3c-.1-28.7-.2-53.1-.2-54.2l-.1-2.1H791c-146.1 0-163 .2-163.4 1.6zM176.5 685.6c-18.5 4.2-28.8 11-38 25-5.9 8.9-7.9 16.3-7.9 28.9 0 6 .3 11.9.6 13 2 6.6 4.3 12.3 5.9 14.4 1.1 1.3 1.9 2.8 1.9 3.4 0 2.4 14.8 15.3 21 18.3 10.9 5.3 24.3 7.2 34.5 5 1.7-.3 3.9-.8 5-1 3.5-.7 9.7-3.7 15.2-7.2 12.8-8.2 21.5-21.3 23.9-36.4 1.1-6.3.6-18.9-.9-23-3-8.6-4.2-11.4-6.2-14.5-1.4-1.9-2.2-3.5-2-3.5.3 0-2.7-3.1-6.5-6.9-5.6-5.5-15.4-12-19-12.6-.3-.1-2.3-.7-4.5-1.4-4.1-1.3-19.4-2.3-23-1.5zM341.5 685.7c-26.2 5.1-45 26.9-45.7 52.8-.4 14.7 5.3 28.9 15.9 39.8 2.6 2.6 6.3 5.7 8.2 6.9 2 1.2 3.9 2.7 4.3 3.2.4.6.8.7.8.2 0-.5.6-.4 1.3.1.6.5 3.2 1.7 5.7 2.6 14.4 5.3 31.6 3.8 45.3-3.8 8.2-4.6 20.2-16.9 20.5-20.9 0-.5.5-1.2 1-1.5 1-.7 4.8-11.1 5.7-15.6 1-5.8.6-17.1-1-22.8-5.4-20.6-20.5-35.3-41-40.3-3.4-.8-18-1.3-21-.7zM503.6 686.6c-12.4 3-24.7 11.4-32.6 22.3-2.5 3.4-6.8 12.7-7.6 16.5-1.3 6.2-1.6 8.8-1.6 15.8-.1 19.3 12 38.5 29.7 47.2 3.8 1.9 7.9 3.7 9 4 8.6 2.3 19 2.7 27 .8 3.3-.7 6.5-1.5 7-1.6 2.1-.4 12.5-6.1 12.5-6.8 0-.4.6-.8 1.3-.8 2.6 0 13.7-13.1 17.1-20.4 5.9-12.4 7.2-28.6 3.1-39.6-.9-2.5-1.7-5-1.9-5.5-.5-2-3.9-8.1-6.5-11.4-13.2-17.4-35.6-25.6-56.5-20.5zM671.5 686c-10.7 2.2-22.6 8.7-29.1 16-5.3 5.9-6.4 7.4-6.4 8.7 0 .7-.3 1.3-.8 1.3-.4 0-1.3 1.5-2.1 3.2-.7 1.8-2 4.6-2.7 6.3-2.8 6.4-3.8 21.5-2 29.8 5.3 23.7 26.8 42 50.6 43.1 5.4.3 10.8-.3 17.8-1.8 3.7-.8 16.2-6.8 16.2-7.7 0-.5.4-.9 1-.9 1.6 0 10.5-9.1 13.7-14 8.6-13.2 11.1-28.8 7.1-44.4-1.1-4.4-2.4-8.4-3-9-.5-.6-1.7-2.6-2.6-4.4-5.8-11-20.3-22.2-33-25.4-5.2-1.3-20-1.7-24.7-.8z"/></svg>