<svg xmlns="http://www.w3.org/2000/svg" version="1" width="600" height="199.417"><defs><linearGradient x1="112.499" y1="6.137" x2="112.499" y2="129.347" id="a" gradientUnits="userSpaceOnUse" gradientTransform="translate(287 -83)"><stop offset="0" stop-color="#fff" stop-opacity="0"/><stop offset="1" stop-color="#fff" stop-opacity=".275"/><midPointStop offset=".5" stop-color="#fff"/></linearGradient><linearGradient id="b"><stop offset="0" stop-opacity="0"/><stop offset="1" stop-opacity=".371"/></linearGradient></defs><g fill="#4d4d4d" fill-rule="evenodd"><path d="M201.532 67.947c-8.073-.013-14.774 1.642-17.364 2.546l-2.668 14.4c-.006.053 13.276-3.542 19.125-3.33 9.686.348 10.578 3.702 10.409 8.23.165.264-2.5-4.091-10.88-4.237-10.571-.183-25.491 3.743-25.47 19.7-.286 17.95 13.408 23.23 22.734 23.327 8.384-.152 12.317-3.175 14.47-4.794 2.83-2.958 6.066-5.933 9.153-9.502-2.921 5.307-5.453 8.977-8.09 11.786v2.37l12.745-2.144.087-34.641c-.13-4.903 2.812-23.665-24.25-23.71zm-1.83 30.161c5.282.073 11.34 2.677 11.35 8.944.026 5.7-7.142 8.766-11.804 8.717-4.664-.048-10.851-3.665-10.879-9.223.09-4.967 5.836-8.566 11.332-8.438zM234.187 71.148l-.087 57.367 14.847-2.86.025-32.527c.004-4.843 6.921-10.502 15.6-10.412 1.843-3.333 5.305-11.85 6.149-13.788-19.39-.047-19.637 5.573-23.01 8.338-.035-5.274-.012-8.44-.012-8.44l-13.512 2.322zM317.741 78.68c-.143-.068-7.743-8.89-23.022-8.96-14.311-.238-30.364 5.31-30.62 29.308.125 21.099 15.42 29.344 30.701 29.505 16.354.17 22.86-10.226 23.25-10.484-1.95-1.691-9.259-8.933-9.259-8.933s-4.565 6.5-13.422 6.582c-8.859.085-16.56-6.847-16.669-16.518-.113-9.672 7.08-14.912 16.736-15.335 8.36-.002 13.183 5.397 13.183 5.397l9.122-10.563zM336.455 51.07l-14.017 3.296.105 74.723 13.808-2.493.156-35.165c.03-3.687 5.335-9.35 14.192-9.17 8.469.088 10.361 5.644 10.338 6.346l.244 40.709 13.617-2.406.052-43.167c.09-4.154-9.098-12.927-23.868-12.989-7.018.011-10.905 1.6-12.883 2.772-3.385 2.614-7.253 5.12-11.054 8.316 3.514-4.514 6.464-7.635 9.345-9.955l-.035-20.816z"/></g><g fill="#1793d1" fill-rule="evenodd"><path d="M386.777 53.01l6.322-1.582.3 75.333-6.424 1.094-.198-74.845zM403.967 75.493l5.54-2.466.048 54.016-5.351 1.106-.237-52.656zm-1.317-19.478l4.467-3.647 3.712 4.13-4.47 3.743-3.71-4.226zM419.927 74.51l6.323-1.29.03 11.292c0 .485 3.471-12.615 20.214-12.324 16.256.09 18.915 12.675 18.827 15.497l.2 39.71-5.541 1.203-.033-39.224c.065-1.145-2.533-10.832-14.02-10.867-11.486-.034-19.444 8.342-19.43 13.694l.092 34.553-6.422 1.678-.24-53.923zM520.694 127.68l-6.323 1.29-.03-11.292c-.001-.485-3.474 12.616-20.214 12.324-16.256-.09-18.916-12.675-18.828-15.496l-.2-39.711 6.718-1.356.103 39.224c.003 1.071 1.286 10.985 12.774 11.02 11.485.034 19.532-6.916 19.589-17.381l-.082-30.948 6.252-1.596.24 53.923zM533.085 74.064l-4.433 3.47 16.998 22.245-18.13 25.7 4.704 3.49 17.043-23.867 17.59 24.433 4.35-3.47-18.85-26.123 15.038-21.126-4.624-3.91-13.7 19.548-15.986-20.39z"/></g><path d="M105.813 16.625C98.416 34.76 93.954 46.623 85.719 64.219c5.05 5.352 11.247 11.585 21.312 18.625C96.211 78.39 88.83 73.92 83.313 69.28 72.773 91.274 56.26 122.602 22.75 182.813c26.338-15.206 46.754-24.58 65.781-28.157a48.219 48.219 0 0 1-1.25-11.281l.032-.844c.417-16.874 9.195-29.85 19.593-28.968 10.398.88 18.48 15.282 18.063 32.156-.079 3.175-.437 6.23-1.063 9.062 18.82 3.682 39.019 13.032 65 28.032-5.123-9.432-9.695-17.934-14.062-26.032-6.879-5.331-14.053-12.27-28.688-19.781 10.06 2.614 17.261 5.63 22.875 9-44.398-82.662-47.993-93.646-63.218-129.375z" fill="#1793d1" fill-rule="evenodd"/><g font-size="8.441" font-weight="400" fill="#1793d1" font-family="DejaVu Sans Mono"><path d="M579.487 124.367v-4.661h-1.741v-.624h4.189v.624h-1.749v4.661h-.699M582.663 124.367v-5.285h1.053l1.25 3.742c.116.349.2.61.253.782.06-.192.154-.474.281-.847l1.266-3.677h.94v5.285h-.674v-4.423l-1.535 4.423h-.631l-1.529-4.499v4.5h-.674"/></g><g font-size="8.251" font-weight="400" fill="#1793d1" font-family="DejaVu Sans Mono"><path d="M189.726 167.98v-4.557h-1.702v-.61h4.095v.61h-1.71v4.556h-.683M192.83 167.98v-5.167h1.03l1.223 3.658c.112.34.195.596.246.765.059-.188.15-.464.275-.828l1.237-3.595h.92v5.166h-.66v-4.323l-1.5 4.323h-.617l-1.494-4.397v4.397h-.66"/></g></svg>