<svg xmlns="http://www.w3.org/2000/svg" xmlns:xlink="http://www.w3.org/1999/xlink" width="272" height="83" viewBox="0 0 191.356 57.344"><defs><path id="a" d="M0 0h191.356v57.344H0z"/></defs><clipPath id="b"><use xlink:href="#a" overflow="visible"/></clipPath><path clip-path="url(#b)" fill="#444b5e" d="M75.198 5.328c-1.872.047-2.977.863-3.34 2.42.481.418 1.126.6 1.769.572 1.415-.061 2.817-1.138 2.42-2.965a7.516 7.516 0 0 0-.849-.027M152.528 27.115c-1.522-2.088-3.507-3.131-5.951-3.131-2.125 0-3.948.781-5.472 2.341-1.523 1.542-2.285 3.403-2.285 5.584 0 2.163.752 4.034 2.257 5.613 1.523 1.561 3.386 2.342 5.584 2.342 2.2 0 4.156-1.025 5.867-3.075v2.567h1.891V24.379h-1.891v2.736zm-1.635 9.223c-1.166 1.166-2.567 1.749-4.203 1.749-1.617 0-3.008-.602-4.174-1.806-1.166-1.222-1.749-2.66-1.749-4.315 0-1.654.574-3.083 1.721-4.287 1.147-1.222 2.548-1.834 4.202-1.834 1.674 0 3.084.593 4.231 1.777 1.146 1.166 1.721 2.605 1.721 4.316 0 1.768-.583 3.234-1.749 4.4M135.011 24.38h1.946v14.977h-1.946zM103.934 19.105l-8.179 16.613-8.237-16.613h-.31l-2.877 20.251h1.947l1.974-14.61 7.249 14.61h.507l7.164-14.497 1.975 14.497h2.002l-2.905-20.251zM121.864 27.115c-1.521-2.088-3.506-3.131-5.951-3.131-2.124 0-3.947.781-5.471 2.341-1.524 1.542-2.285 3.403-2.285 5.584 0 2.163.752 4.034 2.256 5.613 1.523 1.561 3.386 2.342 5.585 2.342 2.2 0 4.156-1.025 5.866-3.075v2.567h1.89V24.379h-1.89v2.736zm-1.635 9.223c-1.166 1.166-2.567 1.749-4.203 1.749-1.617 0-3.008-.602-4.174-1.806-1.166-1.222-1.749-2.66-1.749-4.315 0-1.654.573-3.083 1.72-4.287 1.148-1.222 2.548-1.834 4.203-1.834 1.674 0 3.084.593 4.231 1.777 1.146 1.166 1.72 2.605 1.72 4.316.001 1.768-.581 3.234-1.748 4.4M170.655 21.756c-.978-.921-2.143-1.589-3.497-2.002-1.335-.432-3.441-.649-6.318-.649h-4.202v20.252h6.459c2.633 0 4.644-.396 6.035-1.185 1.41-.79 2.521-1.956 3.328-3.498a10.443 10.443 0 0 0 1.241-4.964c0-1.769-.263-3.309-.789-4.625-.526-1.317-1.279-2.426-2.257-3.329m.367 11.225a7.225 7.225 0 0 1-1.891 2.651 6.509 6.509 0 0 1-2.904 1.438c-1.091.245-2.858.367-5.304.367h-2.341V21.079h1.438c2.426 0 4.26.132 5.501.395 1.259.245 2.35.734 3.271 1.467.922.733 1.627 1.664 2.116 2.792.508 1.128.761 2.36.761 3.695s-.215 2.519-.647 3.553M183.707 28.299c.847-.451 1.484-1.043 1.918-1.777.451-.752.677-1.57.677-2.454 0-1.598-.555-2.82-1.664-3.667-1.091-.865-2.698-1.297-4.823-1.297h-4.005v20.252h5.584c1.938 0 3.517-.546 4.739-1.636 1.222-1.11 1.833-2.501 1.833-4.175 0-1.24-.367-2.313-1.1-3.216-.715-.901-1.768-1.578-3.159-2.03m-5.895-7.219h2.342c2.708 0 4.062.996 4.062 2.989 0 1.204-.432 2.088-1.297 2.652-.866.564-2.182.846-3.949.846h-1.157V21.08zm7.39 14.524a3.998 3.998 0 0 1-1.693 1.354c-.676.282-1.739.424-3.186.424h-2.512v-7.785h1.128c1.824 0 3.065.094 3.725.282.677.188 1.25.471 1.72.847.489.376.855.809 1.101 1.297.243.489.366 1.053.366 1.692s-.216 1.269-.649 1.889M191.129 19.95a1.563 1.563 0 0 0-.633-.626c-.272-.146-.549-.219-.834-.219s-.563.073-.834.219a1.574 1.574 0 0 0-.635.626 1.725 1.725 0 0 0-.228.851c0 .292.075.573.225.842.149.27.358.479.628.628a1.71 1.71 0 0 0 1.688 0c.27-.149.478-.358.626-.628.15-.269.225-.55.225-.842a1.746 1.746 0 0 0-.228-.851m-.24 1.553c-.124.224-.299.399-.523.524a1.424 1.424 0 0 1-1.407 0c-.224-.125-.399-.3-.524-.524s-.188-.458-.188-.702c0-.246.063-.482.19-.709.128-.227.305-.401.529-.523.227-.122.458-.183.696-.183.237 0 .468.061.694.183.226.122.402.296.528.523a1.418 1.418 0 0 1 .005 1.411"/><path clip-path="url(#b)" fill="#444b5e" d="M189.957 21.018a.485.485 0 0 0-.154-.097.567.567 0 0 0 .38-.166.483.483 0 0 0 .058-.614.453.453 0 0 0-.229-.176c-.097-.034-.251-.051-.466-.051h-.627v1.822h.295v-.773h.173c.103-.001.182.02.234.061.079.057.183.199.31.425l.163.287h.356l-.222-.357a2.136 2.136 0 0 0-.271-.361m-.388-.308h-.356v-.547h.335c.144 0 .241.01.296.031a.25.25 0 0 1 .169.239.246.246 0 0 1-.093.201c-.063.051-.18.076-.351.076M135.972 19.105c-.38 0-.71.14-.991.421-.264.28-.396.611-.396.991 0 .363.132.685.396.966.281.281.611.421.991.421.397 0 .728-.132.991-.396.281-.281.421-.612.421-.991 0-.397-.14-.727-.421-.991a1.302 1.302 0 0 0-.991-.421M132.377 24.146a6.905 6.905 0 0 0-4.28 2.307V24.41h-.336v-.031h-1.509v14.983h1.965v-8.879c0-.866.239-1.645.712-2.339a4.637 4.637 0 0 1 3.839-2.181v-1.902c-.311.058-.391.08-.391.085M84.839 0H84.672c-1.335.043-1.542.767-4.425 1.477-2.912.717-5.725.028-8.861 1.344C62.025 6.748 60.031 20.293 51.521 25.1c-6.361 3.593-12.512 5.188-18.281 6.995-3.792 1.188-7.552 2.556-10.988 5.516-2.667 2.299-3.391 4.085-6.177 6.969C13.24 47.513 4.522 42.322.274 46.12a.838.838 0 0 0 .014 1.253c.921.805 2.671 2.722 4.336 3.314-.528 1.001-3.513 3.946-2.904 5.419.641 1.549 8.039.497 14.88-3.633 3.185-1.924 5.723-4.696 10.685-5.357 6.42-.855 13.817.549 21.25 1.62-1.103 3.286-3.315 5.473-5.088 8.089-.549.592 1.103.658 2.986.301 3.389-.838 5.832-1.513 8.389-3.001 3.143-1.83 3.619-6.52 7.474-7.534 1.864 2.865 6.509 3.829 10.074 2.309.198-.084.392-.177.582-.275.431-.375.178-.813-.086-1.135a5.915 5.915 0 0 1-.362-.364c-2.012-2.162-2.472-7.266-1.579-9.748 1.017-2.824 2.022-7.343 3.046-11.075 1.1-4.01 1.506-9.063 2.837-11.106 2.002-3.072 4.215-4.127 6.136-5.86 1.92-1.733 3.679-3.419 3.621-7.384C86.547.734 85.946.03 84.839 0m.204 4.163c-.396 2.734-2.152 4.247-4.207 5.688-1.81 1.27-3.794 2.493-5.069 4.477-1.305 2.031-2.134 8.985-4.159 15.852-1.68 5.698-4.184 11.335-8.467 14.05a.463.463 0 0 1-.704-.309c-.289-1.592-.24-4.509-.734-3.56-.62 1.77-1.322 3.458-2.143 5.027-2.52 4.816-6.166 8.505-12.057 9.949a.527.527 0 0 1-.552-.82c2.718-3.769 5.15-7.825 5.447-14.014.025-.534-.646-.778-.983-.364-1.284 1.583-1.591 5.347-3.477 6.506-1.474.161-2.967.16-4.469.07-6.171-.37-12.502-2.226-18.274-.373-3.931 1.262-8.057 4.849-11.386 6.293-3.912 1.696-5.765 3.297-10.706 3.187-.505-.68 2.062-3.623 2.934-4.893.278-.407-.317-.835-.874-1.091-1.338-.614-2.681-2.281-4.107-2.93.183-.337.831-.674 1.187-.881 3.241-1.88 11.832 2.124 14.141-.143 1.425-1.398 2.385-2.626 3.353-4.049.939-1.381 2.368-2.838 3.847-4.047a31.328 31.328 0 0 1 1.941-1.435c2.52-1.724 3.907-1.852 7.17-3.064 4.152-1.544 9.293-2.898 13.747-4.6 2.752-1.053 5.744-2.351 8.183-4.169a16.456 16.456 0 0 0 1.634-1.386c6.964-6.79 8.345-18.766 19.211-19.882a42.974 42.974 0 0 1 3.228-.223c1.096-.029 2.181-.309 3.263-.818.334-.146 2.324-1.349 2.996-.768.448.388.115 2.492.086 2.72"/></svg>