<svg xmlns="http://www.w3.org/2000/svg" xmlns:xlink="http://www.w3.org/1999/xlink" width="709.084" height="577.253" viewBox="0 0 187.612 152.732"><defs><linearGradient xlink:href="#a" id="b" gradientUnits="userSpaceOnUse" x1="562.218" y1="1002.554" x2="570.405" y2="417.138"/><linearGradient id="a"><stop offset="0" stop-color="#f60"/><stop offset="1" stop-color="#ffd42a" stop-opacity=".797"/></linearGradient><linearGradient xlink:href="#a" id="c" x1="562.218" y1="1002.554" x2="570.405" y2="417.138" gradientUnits="userSpaceOnUse" gradientTransform="translate(-19.079 -15.263)"/><linearGradient xlink:href="#a" id="d" x1="562.218" y1="1002.554" x2="570.405" y2="417.138" gradientUnits="userSpaceOnUse" gradientTransform="translate(-15.263 -26.71)"/></defs><g fill-rule="evenodd"><g stroke="#000" stroke-width="24"><path d="M42.913 29.592v-5.924c0-.968-.385-1.896-1.07-2.58a3.659 3.659 0 0 0-5.17 0 3.645 3.645 0 0 0-1.07 2.58v5.924h-1.179v-5.94c0-1.287.51-2.52 1.416-3.43a4.825 4.825 0 0 1 6.836 0 4.86 4.86 0 0 1 1.416 3.43v5.94zM32.903 20.002c-.969 0-1.899.384-2.584 1.068-.686.684-.986 1.528-.986 2.495v5.925h-1.179v-5.94c0-1.288.425-2.437 1.331-3.346a4.825 4.825 0 0 1 3.418-1.421z" opacity=".995" fill-opacity=".996" stroke-linecap="round" stroke-linejoin="round" stroke-dashoffset="2.411" stroke-width=".5088"/><g fill-opacity=".996" stroke-linecap="round" stroke-linejoin="round" stroke-dashoffset="2.411"><path d="M61.565 19.212v5.925c0 .967-.386 1.895-1.071 2.58a3.659 3.659 0 0 1-5.169 0 3.645 3.645 0 0 1-1.07-2.58v-5.925h-1.18v5.94c0 1.287.51 2.521 1.416 3.43a4.825 4.825 0 0 0 6.837 0 4.86 4.86 0 0 0 1.415-3.43v-5.94zM52.528 27.819a3.659 3.659 0 0 1-5.169 0 3.645 3.645 0 0 1-1.07-2.58v-5.924h-1.18v5.94c0 1.287.51 2.52 1.416 3.43a4.825 4.825 0 0 0 6.837 0z" opacity=".995" stroke-width=".5088"/></g><path d="M76.983 11.532l.043 9.018c0 .117.155-.174.238-.257a4.825 4.825 0 0 1 6.837 0 4.86 4.86 0 0 1 1.415 3.43v5.94h-1.179V23.74c0-.968-.385-1.896-1.07-2.58a3.659 3.659 0 0 0-5.17 0 3.639 3.639 0 0 0-1.07 2.58v5.924h-1.179v-5.94l-.03-10.569-.012-1.633c.166-5.998-3.786-8.287-7.539-8.441-5.262-.183-12.706.886-20.799 2.948-16.186 4.124-35.003 12.241-44.54 21.995a.477.477 0 1 1-.683-.667C12.035 17.345 30.93 9.257 47.233 5.103c7.076-1.376 14.33-3.206 21.068-2.977 5.367-.082 8.894 3.052 8.682 9.406z" opacity=".995" fill-opacity=".996" stroke-linecap="round" stroke-linejoin="round" stroke-dashoffset="2.411" stroke-width=".5088"/><path d="M24.414 28.385a5.38 5.38 0 1 1 2.023-4.535c-2.149-.025-4.297-.037-6.445-.053l.02-.72 5.053-.011c-.399-1.809-2.044-3.131-3.998-3.131a4.238 4.238 0 1 0 2.403 7.73zM72.87 28.391a5.38 5.38 0 1 1 2.023-4.535c-2.149-.024-4.297-.036-6.446-.052l.021-.721 5.053-.01c-.4-1.809-2.044-3.131-3.998-3.131a4.238 4.238 0 1 0 2.402 7.729z" stroke-linecap="square" stroke-linejoin="round" stroke-width=".5088"/><path style="line-height:normal;text-indent:0;text-align:start;text-decoration-line:none;text-decoration-style:solid;text-decoration-color:#000;text-transform:none;isolation:auto;mix-blend-mode:normal" d="M18.161 6.352a3.337 3.337 0 0 0-2.119.73c-.865.689-1.478 1.757-1.975 3.053-.993 2.591-1.515 6.159-2.007 9.768-.493 3.608-.95 7.255-1.727 9.882-.388 1.314-.861 2.366-1.397 3.014-.535.647-1.054.909-1.8.827a.583.583 0 1 0-.128 1.159c1.13.124 2.121-.39 2.827-1.243.706-.855 1.205-2.033 1.617-3.426.823-2.786 1.272-6.457 1.763-10.056.491-3.599 1.03-7.128 1.941-9.508.456-1.19 1.007-2.076 1.612-2.558.606-.482 1.24-.633 2.187-.352a.583.583 0 1 0 .332-1.118 4.006 4.006 0 0 0-1.126-.172z" color="#000" font-weight="400" font-family="sans-serif" white-space="normal" overflow="visible" stroke-linecap="round" stroke-width=".5088"/></g><path d="M142.897 29.765V23.75a3.72 3.72 0 0 0-1.077-2.62 3.663 3.663 0 0 0-2.6-1.085c-.975 0-1.91.39-2.6 1.085a3.72 3.72 0 0 0-1.077 2.62v6.016h-1.186v-6.033a4.96 4.96 0 0 1 1.424-3.483 4.832 4.832 0 0 1 3.439-1.443c1.29 0 2.527.519 3.439 1.443a4.96 4.96 0 0 1 1.424 3.483v6.033zM132.827 20.026c-.976 0-1.91.39-2.6 1.085-.69.695-.992 1.55-.992 2.533v6.017h-1.186v-6.033c0-1.306.427-2.473 1.339-3.397a4.832 4.832 0 0 1 3.439-1.443z" opacity=".995" fill-opacity=".996"/><g stroke-width="0" fill-opacity=".996"><path d="M161.662 19.224v6.016a3.72 3.72 0 0 1-1.077 2.62 3.663 3.663 0 0 1-2.6 1.085c-.975 0-1.91-.39-2.6-1.085a3.72 3.72 0 0 1-1.077-2.62v-6.016h-1.186v6.033a4.96 4.96 0 0 0 1.424 3.483 4.832 4.832 0 0 0 3.439 1.443c1.29 0 2.527-.519 3.439-1.443a4.96 4.96 0 0 0 1.424-3.483v-6.033zM152.57 27.964a3.663 3.663 0 0 1-2.6 1.086c-.975 0-1.91-.39-2.6-1.086a3.72 3.72 0 0 1-1.077-2.62v-6.016h-1.186v6.033a4.96 4.96 0 0 0 1.425 3.483 4.832 4.832 0 0 0 3.439 1.443c1.29 0 2.526-.519 3.439-1.443z" opacity=".995"/></g><path d="M177.175 11.424l.043 9.158c0 .119.156-.176.24-.26a4.832 4.832 0 0 1 3.438-1.444c1.29 0 2.527.52 3.44 1.443a4.96 4.96 0 0 1 1.424 3.484v6.033h-1.186V23.82a3.72 3.72 0 0 0-1.077-2.62 3.663 3.663 0 0 0-2.6-1.085c-.976 0-1.911.39-2.6 1.085a3.713 3.713 0 0 0-1.078 2.62v6.017h-1.186v-6.033l-.031-10.734-.012-1.658c.167-6.091-3.808-8.416-7.584-8.573-5.294-.185-12.784.9-20.926 2.995-16.284 4.188-35.216 12.431-44.812 22.337a.477.477 0 0 1-.683.012.488.488 0 0 1-.003-.69c9.849-10.167 28.859-18.38 45.261-22.598 7.12-1.398 14.417-3.257 21.196-3.024 5.4-.083 8.95 3.099 8.736 9.552z" opacity=".995" fill-opacity=".996"/><path d="M124.285 28.539a5.358 5.358 0 0 1-3.367 1.185c-2.989 0-5.412-2.445-5.412-5.463 0-3.017 2.423-5.462 5.412-5.462 2.88 0 5.235 2.27 5.403 5.134-2.162-.025-4.323-.037-6.484-.053l.02-.732 5.084-.01c-.401-1.837-2.057-3.18-4.023-3.18-2.354 0-4.263 1.927-4.263 4.303 0 2.377 1.909 4.304 4.263 4.304.898 0 1.73-.28 2.418-.758zM173.036 28.546a5.358 5.358 0 0 1-3.367 1.185c-2.99 0-5.412-2.445-5.412-5.463 0-3.017 2.423-5.463 5.412-5.463 2.88 0 5.234 2.27 5.402 5.135-2.161-.025-4.323-.037-6.484-.053l.021-.732 5.083-.01c-.401-1.837-2.056-3.18-4.022-3.18-2.355 0-4.264 1.926-4.264 4.303s1.909 4.304 4.264 4.304c.897 0 1.73-.28 2.417-.758z"/><path style="line-height:normal;text-indent:0;text-align:start;text-decoration-line:none;text-decoration-style:solid;text-decoration-color:#000;text-transform:none;isolation:auto;mix-blend-mode:normal" d="M117.995 6.164a3.337 3.337 0 0 0-2.132.74c-.87.7-1.487 1.785-1.987 3.101-.999 2.632-1.524 6.255-2.02 9.92-.495 3.665-.956 7.369-1.736 10.036-.39 1.334-.867 2.403-1.406 3.06-.539.658-1.06.924-1.812.84a.587.592 0 1 0-.128 1.177c1.136.126 2.134-.394 2.844-1.262s1.213-2.064 1.627-3.479c.828-2.83 1.28-6.557 1.774-10.212.494-3.655 1.035-7.239 1.953-9.656.458-1.208 1.013-2.108 1.622-2.598.609-.489 1.246-.643 2.2-.358a.587.592 0 1 0 .333-1.135 3.996 3.996 0 0 0-1.132-.174z" color="#000" font-weight="400" font-family="sans-serif" white-space="normal" overflow="visible"/></g><g fill-rule="evenodd" transform="matrix(.06974 0 0 .06974 89.98 81.07)"><circle cx="-268.004" cy="714.951" r="253.817" opacity=".995" fill="navy"/><path d="M-347.306 845.315s-54.033 3.807-56.69 4.824c-2.656 1.017-4.474 1.057-10.372 1.93-5.899.873-12.202 1.088-16.856.754.296-.709.688-1.392-.754-1.96l-6.272 1.206c-3.412-.504-1.692-2.125 0-3.739l5.066-.724.361-1.085h-1.568c-2.246-.396-.682-1.867 1.448-3.498l3.498-.12 3.377-1.569 3.015.242 1.327-.603c-.444-.651-.4-1.272.965-1.81l3.98-.482 10.856 4.1 31.721-.843c3.907-1.998 10.752-2.75 12.995-4.23l-.64-.682c-3.64-1.74-2.295-3.48-1.258-5.22l-1.93-1.568s-6.37.045-8.794-1.058c-2.425-1.104-5.288-4.777-5.288-4.777s-3.492-1.156-4.435-2.046c-.944-.891-1.365-2.56-1.365-2.56s-3.697-.794-4.605-1.023c-.91-.228-4.032-3.37-3.412-4.093l2.047-2.388c-2.276-.364-2.572-1.577-2.63-2.892 0 0-2.518.152-3.51-.69-.994-.843-1.486-3.965-1.486-3.965s-1.604-.177-2.517-1.103c-.914-.925-1.968-4.655-1.968-4.655s-2.151.359-3.17-.483c-1.019-.841-1.094-3.952-1.094-3.952s-1.857.258-2.9-.512-2.205-4.3-2.205-4.3-11.202-1.484-11.782-1.67c-.58-.186-.466-1.361-.683-2.047-1.496-.38-1.823-.875-2.217-1.365-4.77-1.252-3.749-2.202-3.753-2.558-.004-.356 1.877-2.047 1.877-2.047-3.07-.303-7.268-.515-9.212-1.535-1.943-1.021.151-2.117.342-3.241-1.505.092-1.523-.35-2.218-1.365-.694-1.015-.434-2.191 0-3.07-.91.028-1.867.042-2.729-1.024-.862-1.066-.634-1.998-.512-3.07-3.604-.372-6.576-2.324-9.552-4.264-.732-1.947.38-2.357 1.535-2.73-3.476-.311-6.364-2.033-9.04-4.264l1.456-2.207c-3.102-1.148-7.208-2.248-9.263-3.994l.472-.793c-3.061-3.563-6.916-3.95-10.405-5.8l.222-1.354c-6.378-2.241-12.968-3.331-20.221-3.602 7.983-1.655 21.764-.061 31.156.106l-3.559-2.111c-6.057-2.946-47.066-4.385-48.547-6.785l75.384 7.117-8.382-3.348c-12.289-2.068-48.275-14.733-60.448-20.382 17.343 2.323 58.587 15.767 83.904 21.959l-2.217-1.92c-18.082-6.2-53.657-21.969-58.25-28.824 24.175 9.6 52.27 23.737 75.004 30.796l2.597.11c-14.437-9.066-49.657-25.27-58.711-51.974 23.166 21.536 45.894 41.407 65.884 50.874l2.09.085s-19.47-15.807-24.765-22.253c-5.296-6.447-18.606-26.695-18.334-43.422 9.64 7.137 17.527 43.623 49.837 65.696l.533-1.066c-19.167-21.398-22.705-35.62-27.57-62.367 17.411 14.961 5.95 69.172 87.207 99.105l31.344 19.104c2.57-3.314 5.797-6.235 8.158-8.658.752-3.646 3-4.676 4.976-6.182-2.267-.98 1.502-4.376 3.753-7.164 1.407-3.315 2.796-6.67 5.458-7.164-.143-3.345 2.423-5.788 5.117-8.188 1.901-2.426 2.578-6.842 6.823-5.458-3.019-4.049 4.522-7.453 6.32-11.337-3.193-3.32 1.804-5.079 4.98-7.185.036-1.769 4.488-3.979 7.464-6.04-1.779-2.313 10.864-5.321 11.852-8.71 1.308-6.128 5.894-6.84 9.65-8.925 2.888-4.041 6.72-6.299 10.613-8.443 1-4.335 5.949-5.44 9.167-7.96-3.642-4.28 3.732-8.925 8.443-11.097 4.535-9.303 7.888-7.669 11.58-9.167.505-7.627 7.261-7.754 11.337-11.097-.26-2.34-2.265-4.044 11.097-11.337-1.939-5.855 10.684-19.206 15.68-8.685.938-11.994 17.206-31.512 20.746-17.61 1.987-9.551 22.698-33.416 20.504-16.644 5.517-7.401 10.922-15.956 17.369-13.75 4.967-4.394 8.91-10.733 16.886-9.409 2.751-3.454 4.35-7.112 12.303-9.649l-2.895 8.926 6.513-2.171c-4.114 12.68-11.9 73.289-55.724 106.382-7.659 13.784-17.178 26.998-30.395 39.08-20.932 15.31-55.031 56.226-66.821 87.808-.001 3.64-.192 7.255 2.895 11.337 23.857 19.362 36.404 16.155 57.451.225 16.744-8.179 30.854-3.317 37.015 8.87l52.573 28.716.003.803-2.35-.101-54.064-24.898-3.07-.341-.938-.939h-1.365l1.365 1.024 1.535.682 2.73.682 54.924 27.207-3.582.341-37.612-12.963-18.507-3.241c-5.254.526-15.1-.988-20.299-2.815-10.763 5.272-17.539 5.517-29.745 8.47-11.357 2.91-33.288 9.679-44.809 7.478-3.64-.852-13.66-1.718-20.115 2.645-6.989 1.609-13.712 1.837-17.728 1.969 0 0-38.119-2.466-41.28-4.04-23.129-9.912-38.769-6.52-60.395-6.671l-27.719 2.004-26.17 3.61-17.85.242-7.84 1.327-1.327-2.05 2.05-3.257 5.73-1.87m102.124-27.085l4.264-2.9c1.26-2.16 3.653-4.32 7.164-6.482 2.483-3.637 4.468-5.036 6.312-5.8-.926-2.064-.305-3.51.34-4.946l3.924-6.311c.379-2.068.25-4.423 3.03-5.38-.104-.72-.613-2.997.338-5.616-.421 1.234-1.004 3.545-.315 5.597-3.152 1.034-2.559 3.744-3.057 5.428-1.306 2.232-2.96 4.39-3.89 6.323-1.012 2.103-1.108 3.667-.38 4.88-2.993 1.256-4.59 3.559-6.258 5.809-2.896 1.905-5.757 3.828-7.207 6.511z" fill="#fff" stroke="#000"/></g><g fill-rule="evenodd" transform="matrix(.06974 0 0 .06974 89.98 81.07)"><circle cx="946.537" cy="724.857" r="253.817" opacity=".995" fill="url(#b)" stroke="#8080ff" stroke-width="25" stroke-linecap="round" stroke-linejoin="round" stroke-dashoffset="2.411"/><path d="M868.362 852.337s-54.033 3.808-56.689 4.825c-2.656 1.017-4.474 1.057-10.373 1.93-5.898.873-12.202 1.088-16.856.754.297-.71.689-1.392-.754-1.96l-6.272 1.206c-3.411-.505-1.691-2.125 0-3.74l5.066-.723.362-1.085h-1.568c-2.247-.397-.683-1.868 1.447-3.498l3.498-.12 3.377-1.569 3.016.241 1.327-.603c-.445-.65-.401-1.271.965-1.809l3.98-.482 10.855 4.1 31.722-.844c3.907-1.998 10.752-2.748 12.995-4.229l-.64-.682c-3.64-1.74-2.296-3.48-1.258-5.22l-1.93-1.568s-6.37.045-8.795-1.059c-2.424-1.103-5.288-4.776-5.288-4.776s-3.491-1.156-4.435-2.047c-.943-.89-1.364-2.558-1.364-2.558s-3.697-.795-4.606-1.024c-.908-.229-4.032-3.37-3.411-4.094l2.047-2.388c-2.276-.364-2.572-1.576-2.63-2.891 0 0-2.518.151-3.511-.69-.993-.843-1.485-3.965-1.485-3.965s-1.604-.178-2.518-1.103c-.913-.926-1.967-4.656-1.967-4.656s-2.152.36-3.17-.482c-1.02-.842-1.095-3.953-1.095-3.953s-1.857.258-2.9-.511c-1.042-.77-2.205-4.3-2.205-4.3s-11.202-1.485-11.782-1.67c-.58-.186-.466-1.361-.682-2.047-1.497-.38-1.824-.876-2.218-1.365-4.77-1.253-3.748-2.203-3.752-2.559-.004-.355 1.876-2.047 1.876-2.047-3.07-.302-7.268-.514-9.21-1.535-1.944-1.02.15-2.117.34-3.24-1.505.091-1.523-.35-2.217-1.365-.695-1.015-.434-2.192 0-3.07-.91.027-1.867.041-2.73-1.024-.862-1.066-.634-1.998-.511-3.07-3.604-.373-6.576-2.324-9.552-4.265-.732-1.946.379-2.356 1.535-2.73-3.476-.31-6.365-2.032-9.04-4.263l1.455-2.208c-3.101-1.148-7.208-2.247-9.263-3.994l.472-.792c-3.06-3.563-6.915-3.95-10.405-5.8l.223-1.354c-6.379-2.241-12.969-3.332-20.221-3.603 7.982-1.654 21.764-.06 31.155.106l-3.558-2.11c-6.058-2.946-47.066-4.385-48.548-6.785l75.385 7.116-8.383-3.347c-12.288-2.068-48.275-14.733-60.447-20.382 17.343 2.322 58.587 15.767 83.904 21.958l-2.218-1.918c-18.082-6.201-53.656-21.97-58.249-28.825 24.174 9.6 52.27 23.737 75.004 30.795l2.597.11c-14.437-9.065-49.658-25.27-58.712-51.974 23.167 21.536 45.895 41.407 65.885 50.874l2.09.085s-19.47-15.807-24.766-22.253c-5.296-6.446-18.606-26.695-18.333-43.421 9.639 7.136 17.527 43.623 49.836 65.696l.533-1.066c-19.166-21.399-22.705-35.62-27.569-62.367 17.41 14.96 5.95 69.171 87.207 99.104l31.343 19.105c2.571-3.315 5.797-6.236 8.159-8.658.752-3.647 3-4.677 4.975-6.182-2.266-.981 1.503-4.377 3.753-7.164 1.408-3.315 2.797-6.671 5.459-7.165-.143-3.345 2.422-5.788 5.117-8.187 1.9-2.426 2.577-6.843 6.823-5.459-3.02-4.049 4.522-7.453 6.32-11.337-3.193-3.32 1.803-5.079 4.98-7.185.035-1.768 4.488-3.978 7.463-6.04-1.779-2.313 10.865-5.32 11.853-8.709 1.307-6.128 5.893-6.841 9.649-8.926 2.888-4.041 6.721-6.298 10.614-8.443 1-4.335 5.948-5.44 9.167-7.96-3.643-4.279 3.732-8.925 8.443-11.097 4.535-9.302 7.887-7.669 11.579-9.167.506-7.627 7.262-7.753 11.338-11.096-.26-2.34-2.265-4.045 11.096-11.338-1.938-5.855 10.685-19.206 15.68-8.684.939-11.995 17.207-31.513 20.746-17.61 1.987-9.552 22.698-33.417 20.505-16.645 5.517-7.4 10.922-15.956 17.368-13.75 4.967-4.393 8.91-10.733 16.886-9.408 2.752-3.455 4.35-7.113 12.303-9.65l-2.895 8.926 6.514-2.171c-4.115 12.68-11.901 73.289-55.725 106.383-7.658 13.783-17.178 26.997-30.395 39.079-20.931 15.31-55.03 56.226-66.82 87.808-.002 3.641-.193 7.255 2.894 11.338 23.857 19.361 36.405 16.155 57.452.224 16.744-8.178 30.853-3.317 37.015 8.87l52.572 28.717v.803l-2.349-.102-54.064-24.898-3.07-.341-.939-.938h-1.364l1.364 1.023 1.535.682 2.73.683 54.925 27.207-3.582.34-37.612-12.963-18.508-3.24c-5.254.526-15.099-.989-20.298-2.815-10.763 5.271-17.54 5.516-29.746 8.47-11.356 2.909-33.288 9.678-44.808 7.478-3.641-.853-13.66-1.719-20.116 2.644-6.988 1.61-13.711 1.837-17.727 1.97 0 0-38.12-2.467-41.28-4.041-23.13-9.911-38.77-6.52-60.395-6.67l-27.719 2.004-26.17 3.61-17.85.241-7.84 1.327-1.328-2.05 2.05-3.257 5.73-1.87m102.124-27.085l4.265-2.9c1.26-2.16 3.652-4.32 7.164-6.481 2.482-3.637 4.467-5.036 6.311-5.8-.926-2.065-.304-3.51.341-4.947l3.924-6.31c.378-2.069.25-4.424 3.029-5.38-.103-.721-.613-2.998.338-5.617-.42 1.235-1.003 3.545-.314 5.598-3.153 1.034-2.56 3.743-3.058 5.427-1.306 2.232-2.96 4.39-3.89 6.323-1.011 2.103-1.108 3.667-.38 4.88-2.992 1.257-4.59 3.56-6.258 5.809-2.895 1.905-5.757 3.828-7.206 6.512z" fill="#fff" stroke="#000"/></g><g transform="matrix(.06974 0 0 .06974 91.31 82.134)"><circle cx="332.473" cy="721.326" r="253.817" opacity=".995" fill="url(#c)" fill-rule="evenodd"/><path d="M232.888 740.827l31.3 81.404 1.722 17.833 4.02 4.89-1.148 9.78 8.04 5.466 27.854 92.621 2.584 17.834 8.327-5.753 4.595-14.67-1.436-5.465 8.614-23.012-2.297-8.629 5.743-4.602-2.871-3.164 8.04-13.52-3.159-6.04 2.01-15.82 4.595-5.753-4.595-10.356 6.318-23.299 9.476-12.368v-5.466l4.594-7.478-2.297-6.616 5.456-9.205 5.168-1.438.862-12.369 2.871-4.602v-8.917l-5.456-10.355-.861-4.315 7.466-14.67 1.436-11.793 1.723-18.697 7.465-18.697-4.02-18.697.288-17.259.861-7.478 5.456-14.67-4.02-21.286 1.723-11.793 2.01-1.15-3.159-2.302 3.159-10.93-2.298-8.342 5.456 1.438-1.435-2.589 2.584-3.451 5.743.287.574-1.726 10.338-6.615 6.891-9.493 2.01-7.766 3.446-8.054-4.307-17.834-4.595-4.315 3.446-6.328-3.733-8.63-3.158-6.615 4.02-2.301-4.595-3.452-3.733 1.15-2.297-1.15-6.317 6.616-4.595.575 1.723 5.465-6.891-8.054-4.307 18.697.574 2.014-3.446 2.589.287 3.451-6.891-.287-.288 2.588-6.604 2.302-5.169-2.302-.574-4.314-13.209 2.013-11.199.288 1.436 4.315-4.307 10.355.574 14.094-2.297 4.315-2.584 2.301-2.585-.575-4.594-6.04-4.308 19.271-1.435 19.273-1.436 2.013v4.602l-2.297 4.89-2.585 11.794-2.01 11.506-6.03 19.272-5.456 19.56-19.239 41.42-4.881 3.74v3.451l-8.902 11.219z" fill-rule="evenodd" fill="#8080ff"/><path d="M254.298 848.807s-54.033 3.807-56.689 4.824c-2.656 1.017-4.474 1.057-10.373 1.93-5.898.873-12.202 1.088-16.856.754.297-.709.689-1.392-.754-1.96l-6.272 1.206c-3.411-.505-1.69-2.125 0-3.739l5.066-.724.362-1.085h-1.568c-2.247-.396-.683-1.867 1.447-3.498l3.498-.12 3.378-1.569 3.015.242 1.327-.604c-.445-.65-.401-1.271.965-1.809l3.98-.482 10.855 4.1 31.722-.844c3.907-1.998 10.752-2.748 12.995-4.229l-.64-.682c-3.64-1.74-2.296-3.48-1.258-5.22l-1.93-1.568s-6.37.045-8.795-1.059c-2.424-1.103-5.288-4.776-5.288-4.776s-3.491-1.156-4.435-2.047c-.943-.89-1.364-2.558-1.364-2.558s-3.697-.795-4.606-1.024c-.908-.229-4.032-3.37-3.411-4.094l2.047-2.388c-2.276-.364-2.572-1.576-2.63-2.89 0 0-2.518.15-3.511-.692-.993-.842-1.485-3.964-1.485-3.964s-1.604-.178-2.518-1.103c-.913-.925-1.967-4.655-1.967-4.655s-2.152.359-3.17-.483c-1.02-.841-1.095-3.952-1.095-3.952s-1.857.257-2.9-.512c-1.042-.77-2.205-4.3-2.205-4.3s-11.202-1.485-11.782-1.67c-.58-.186-.466-1.361-.682-2.047-1.497-.38-1.824-.875-2.217-1.365-4.77-1.253-3.75-2.203-3.753-2.558-.004-.356 1.876-2.047 1.876-2.047-3.07-.303-7.268-.515-9.21-1.536-1.944-1.02.15-2.116.34-3.24-1.505.092-1.523-.35-2.217-1.365-.695-1.015-.434-2.192 0-3.07-.91.027-1.867.042-2.73-1.024-.862-1.066-.634-1.998-.511-3.07-3.604-.372-6.576-2.324-9.552-4.265-.732-1.946.379-2.356 1.535-2.729-3.476-.312-6.365-2.033-9.04-4.264l1.455-2.207c-3.101-1.149-7.208-2.248-9.263-3.994l.473-.793c-3.061-3.563-6.916-3.95-10.406-5.8l.223-1.354c-6.379-2.241-12.969-3.331-20.221-3.602 7.983-1.655 21.764-.062 31.155.105l-3.558-2.11c-6.058-2.946-47.066-4.385-48.548-6.785l75.385 7.116-8.383-3.347c-12.288-2.068-48.275-14.733-60.447-20.382 17.343 2.323 58.587 15.767 83.904 21.959l-2.217-1.92c-18.083-6.2-53.657-21.97-58.25-28.824 24.174 9.6 52.27 23.737 75.004 30.796l2.597.109c-14.437-9.065-49.657-25.27-58.712-51.974 23.167 21.537 45.895 41.407 65.885 50.875l2.09.085s-19.47-15.807-24.766-22.254c-5.296-6.446-18.606-26.694-18.333-43.421 9.64 7.136 17.527 43.623 49.836 65.696l.533-1.066c-19.166-21.398-22.705-35.62-27.569-62.367 17.41 14.96 5.95 69.172 87.207 99.105l31.343 19.104c2.571-3.314 5.797-6.236 8.159-8.658.752-3.647 3-4.677 4.976-6.182-2.267-.98 1.502-4.376 3.752-7.164 1.408-3.315 2.797-6.67 5.459-7.164-.143-3.346 2.422-5.788 5.117-8.188 1.9-2.426 2.577-6.842 6.823-5.458-3.02-4.05 4.522-7.453 6.32-11.337-3.193-3.32 1.803-5.08 4.98-7.185.035-1.769 4.488-3.979 7.463-6.041-1.778-2.312 10.865-5.32 11.853-8.709 1.308-6.128 5.893-6.84 9.649-8.925 2.888-4.042 6.721-6.299 10.614-8.443 1-4.336 5.948-5.44 9.167-7.96-3.643-4.28 3.732-8.925 8.443-11.097 4.535-9.303 7.888-7.669 11.579-9.167.506-7.627 7.262-7.754 11.338-11.097-.26-2.34-2.265-4.045 11.096-11.338-1.938-5.855 10.685-19.205 15.68-8.684.94-11.994 17.207-31.512 20.746-17.61 1.987-9.551 22.698-33.416 20.505-16.645 5.517-7.4 10.922-15.955 17.368-13.75 4.967-4.393 8.91-10.733 16.886-9.408 2.752-3.454 4.35-7.112 12.303-9.649l-2.895 8.926 6.514-2.171c-4.114 12.68-11.901 73.288-55.725 106.382-7.658 13.784-17.178 26.997-30.395 39.08-20.931 15.31-55.03 56.226-66.82 87.807-.001 3.642-.193 7.256 2.894 11.338 23.857 19.362 36.405 16.155 57.452.224 16.744-8.178 30.853-3.317 37.015 8.87l52.572 28.717.003.803-2.348-.101-54.065-24.898-3.07-.342-.939-.938h-1.364l1.364 1.024 1.536.682 2.729.682 54.925 27.207-3.582.341-37.612-12.963-18.507-3.241c-5.255.526-15.1-.988-20.299-2.815-10.763 5.271-17.54 5.517-29.746 8.47-11.356 2.91-33.288 9.679-44.808 7.478-3.641-.852-13.66-1.718-20.115 2.645-6.99 1.609-13.712 1.837-17.728 1.969 0 0-38.12-2.466-41.28-4.04-23.13-9.912-38.77-6.52-60.395-6.671l-27.719 2.004-26.17 3.61-17.85.242-7.84 1.327-1.328-2.05 2.05-3.257 5.73-1.87m102.124-27.085l4.265-2.9c1.26-2.16 3.653-4.321 7.164-6.482 2.482-3.637 4.468-5.036 6.311-5.8-.926-2.064-.304-3.51.342-4.946l3.923-6.311c.378-2.068.25-4.423 3.029-5.38-.103-.72-.613-2.998.338-5.616-.42 1.234-1.003 3.545-.314 5.597-3.152 1.034-2.56 3.744-3.058 5.428-1.306 2.232-2.959 4.39-3.89 6.323-1.011 2.103-1.108 3.667-.38 4.88-2.992 1.256-4.59 3.559-6.258 5.808-2.895 1.905-5.757 3.828-7.206 6.512z" fill="#fff" fill-rule="evenodd" stroke="#000"/></g><g transform="matrix(.06974 0 0 .06974 91.044 82.932)"><circle cx="-864.57" cy="720.429" r="253.817" opacity=".995" fill="url(#d)" fill-rule="evenodd"/><path d="M1011.173 535.518l37.185 96.546 2.047 21.151 4.776 5.8-1.364 11.599 9.552 6.482 33.092 109.85 3.07 21.152 9.893-6.823 5.459-17.399-1.706-6.482 10.235-27.292-2.73-10.234 6.823-5.459-3.411-3.753 9.552-16.034-3.753-7.164 2.389-18.763 5.458-6.823-5.458-12.282 7.505-27.633 11.258-14.67v-6.481l5.458-8.87-2.729-7.847 6.482-10.917 6.14-1.705 1.024-14.67 3.412-5.458v-10.576l-6.482-12.281-1.024-5.118 8.87-17.398 1.706-13.988 2.047-22.174 8.87-22.175-4.776-22.175.34-20.47 1.024-8.87 6.482-17.398-4.776-25.245 2.047-13.987 2.388-1.365-3.753-2.73 3.753-12.963-2.73-9.893 6.483 1.706-1.706-3.07 3.07-4.095 6.823.341.683-2.046 12.281-7.847 8.188-11.258 2.388-9.211 4.093-9.552-5.117-21.152-5.458-5.117 4.094-7.505-4.435-10.235-3.753-7.846 4.776-2.73-5.458-4.093-4.435 1.364-2.73-1.364-7.505 7.846-5.458.683 2.047 6.481-8.188-9.552-5.117 22.175.682 2.388-4.094 3.07.341 4.094-8.187-.34-.341 3.07-7.847 2.729-6.14-2.73-.683-5.117-15.693 2.388-13.305.341 1.706 5.118-5.117 12.281.682 16.717-2.73 5.117-3.07 2.729-3.07-.682-5.458-7.164-5.118 22.857-1.705 22.857-1.706 2.388v5.458l-2.73 5.8-3.07 13.987-2.388 13.646-7.164 22.857-6.482 23.199-22.857 49.125-5.8 4.435v4.094l-10.575 13.305z" fill-rule="evenodd" transform="matrix(.8417 0 0 .84316 -1815.267 288.405)" fill="navy" fill-opacity=".996" stroke="#fff" stroke-width="5.629"/><path d="M-942.745 847.91s-54.033 3.807-56.69 4.824c-2.655 1.017-4.474 1.057-10.372 1.93-5.899.873-12.202 1.088-16.856.754.297-.709.688-1.392-.754-1.96l-6.272 1.206c-3.412-.505-1.691-2.125 0-3.739l5.066-.724.362-1.085h-1.568c-2.247-.396-.683-1.867 1.447-3.498l3.498-.12 3.377-1.569 3.016.242 1.326-.604c-.444-.65-.4-1.27.965-1.809l3.98-.482 10.856 4.1 31.722-.844c3.907-1.997 10.752-2.748 12.994-4.229l-.64-.682c-3.64-1.74-2.295-3.48-1.258-5.22l-1.93-1.568s-6.37.045-8.794-1.059c-2.425-1.103-5.288-4.776-5.288-4.776s-3.492-1.156-4.435-2.047c-.943-.89-1.365-2.558-1.365-2.558s-3.696-.795-4.605-1.024c-.909-.229-4.032-3.37-3.412-4.093l2.047-2.389c-2.276-.364-2.571-1.576-2.629-2.89 0 0-2.518.15-3.511-.692-.994-.842-1.486-3.964-1.486-3.964s-1.603-.177-2.517-1.103c-.913-.925-1.968-4.655-1.968-4.655s-2.151.359-3.17-.483c-1.019-.841-1.094-3.952-1.094-3.952s-1.857.258-2.9-.512-2.205-4.3-2.205-4.3-11.202-1.485-11.782-1.67c-.58-.186-.466-1.361-.682-2.047-1.497-.38-1.824-.875-2.218-1.365-4.77-1.253-3.749-2.203-3.752-2.558 0-.356 1.876-2.047 1.876-2.047-3.07-.303-7.268-.515-9.211-1.536-1.943-1.02.15-2.116.341-3.24-1.505.092-1.523-.35-2.217-1.365-.695-1.015-.434-2.192 0-3.07-.91.027-1.867.042-2.73-1.024-.862-1.066-.634-1.998-.511-3.07-3.604-.372-6.576-2.324-9.553-4.265-.732-1.946.38-2.356 1.536-2.729-3.476-.312-6.365-2.033-9.041-4.264l1.456-2.207c-3.102-1.149-7.208-2.248-9.263-3.994l.472-.793c-3.06-3.563-6.916-3.95-10.405-5.8l.222-1.354c-6.378-2.241-12.968-3.331-20.22-3.602 7.982-1.655 21.763-.062 31.155.105l-3.558-2.11c-6.058-2.946-47.066-4.385-48.548-6.785l75.385 7.116-8.383-3.347c-12.288-2.068-48.275-14.733-60.447-20.382 17.343 2.323 58.586 15.767 83.904 21.959l-2.218-1.92c-18.082-6.2-53.656-21.97-58.25-28.824 24.175 9.6 52.27 23.737 75.005 30.796l2.596.109c-14.436-9.065-49.657-25.27-58.711-51.974 23.166 21.537 45.894 41.408 65.885 50.875l2.09.085s-19.47-15.807-24.766-22.253c-5.296-6.447-18.606-26.695-18.334-43.422 9.64 7.136 17.527 43.623 49.837 65.696l.533-1.066c-19.166-21.398-22.705-35.62-27.57-62.367 17.412 14.96 5.95 69.172 87.208 99.105l31.343 19.104c2.57-3.314 5.797-6.235 8.158-8.658.753-3.647 3-4.676 4.976-6.182-2.267-.98 1.503-4.376 3.753-7.164 1.408-3.315 2.797-6.67 5.458-7.164-.143-3.346 2.423-5.788 5.118-8.188 1.9-2.426 2.577-6.842 6.823-5.458-3.02-4.049 4.522-7.453 6.32-11.337-3.193-3.32 1.803-5.08 4.979-7.185.036-1.769 4.489-3.979 7.464-6.041-1.779-2.312 10.865-5.32 11.852-8.709 1.308-6.128 5.894-6.84 9.65-8.925 2.888-4.042 6.721-6.299 10.614-8.443 1-4.336 5.948-5.44 9.167-7.96-3.643-4.28 3.731-8.925 8.443-11.097 4.535-9.303 7.887-7.669 11.579-9.167.505-7.627 7.262-7.754 11.337-11.097-.26-2.34-2.265-4.045 11.097-11.338-1.938-5.855 10.685-19.205 15.68-8.684.939-11.994 17.206-31.512 20.746-17.61 1.987-9.551 22.698-33.416 20.504-16.645 5.517-7.4 10.923-15.955 17.369-13.75 4.967-4.393 8.91-10.733 16.886-9.408 2.752-3.454 4.35-7.112 12.303-9.649l-2.895 8.926 6.513-2.171c-4.114 12.68-11.9 73.288-55.724 106.382-7.659 13.784-17.178 26.997-30.395 39.08-20.931 15.31-55.031 56.226-66.82 87.807-.002 3.642-.193 7.256 2.894 11.338 23.857 19.362 36.405 16.155 57.452.224 16.744-8.178 30.853-3.316 37.015 8.87l52.572 28.717.003.803-2.349-.101-54.064-24.898-3.07-.342-.939-.938h-1.365l1.365 1.024 1.535.682 2.73.682 54.925 27.207-3.582.341-37.612-12.963-18.508-3.241c-5.254.526-15.1-.988-20.298-2.815-10.764 5.271-17.54 5.517-29.746 8.47-11.357 2.91-33.288 9.679-44.809 7.478-3.64-.852-13.66-1.718-20.115 2.645-6.988 1.609-13.712 1.837-17.728 1.969 0 0-38.118-2.466-41.28-4.04-23.129-9.912-38.768-6.52-60.395-6.671l-27.718 2.004-26.17 3.61-17.851.242-7.84 1.327-1.327-2.05 2.05-3.257 5.73-1.87m102.124-27.085l4.265-2.9c1.26-2.16 3.652-4.321 7.164-6.482 2.482-3.637 4.467-5.036 6.311-5.8-.926-2.064-.305-3.51.341-4.946l3.923-6.311c.379-2.068.25-4.423 3.03-5.38-.104-.72-.613-2.997.338-5.616-.42 1.234-1.003 3.545-.314 5.597-3.153 1.034-2.56 3.744-3.058 5.428-1.306 2.232-2.96 4.39-3.89 6.323-1.011 2.103-1.108 3.667-.38 4.88-2.993 1.256-4.59 3.559-6.258 5.809-2.895 1.904-5.757 3.827-7.206 6.511z" fill="#fff" fill-rule="evenodd" stroke="#000"/></g><g transform="matrix(.07876 0 0 .07876 -57.078 81.153)"><rect rx="167.188" ry="167.188" y="-320.775" x="1389.12" height="490.625" width="1053.125" fill="#53676c" fill-rule="evenodd" stroke="#53676c" stroke-width="24" stroke-linecap="round" stroke-linejoin="round"/><path d="M1472.993-62.984l32.432 84.35 1.786 18.48 4.165 5.066-1.19 10.134 8.331 5.663 28.862 95.974 2.678 18.48 8.629-5.962 4.76-15.2-1.487-5.663 8.926-23.845-2.38-8.942 5.95-4.768-2.975-3.279 8.331-14.009-3.273-6.259 2.083-16.393 4.76-5.96-4.76-10.73 6.546-24.143 9.819-12.817V11.53l4.76-7.75-2.38-6.854 5.653-9.538 5.356-1.49.893-12.817 2.975-4.769v-9.24l-5.653-10.73-.893-4.47 7.736-15.201 1.488-12.22 1.785-19.374 7.737-19.374-4.166-19.373.297-17.883.893-7.75 5.653-15.2-4.165-22.057 1.785-12.22 2.083-1.192-3.273-2.385 3.273-11.326-2.38-8.643 5.653 1.49-1.488-2.683 2.678-3.576 5.95.298.596-1.788 10.711-6.856 7.142-9.836 2.082-8.047 3.57-8.346-4.462-18.479-4.761-4.47 3.57-6.558-3.868-8.942-3.273-6.855 4.166-2.384-4.76-3.577-3.869 1.192-2.38-1.192-6.546 6.855-4.76.596 1.785 5.663-7.141-8.345-4.464 19.373.596 2.087-3.571 2.682.298 3.577-7.141-.298-.298 2.682-6.843 2.385-5.356-2.385-.595-4.47-13.687 2.086-11.604.298 1.487 4.47-4.463 10.73.595 14.605-2.38 4.471-2.678 2.385-2.678-.596-4.76-6.26-4.464 19.97-1.487 19.97-1.488 2.086v4.77l-2.38 5.066-2.678 12.22-2.083 11.923-6.249 19.97-5.653 20.267-19.935 42.92-5.059 3.875v3.576l-9.223 11.624z" fill-rule="evenodd" fill="#87cdde" fill-opacity=".996" stroke-width="5.629"/><text transform="scale(1.0088 .99128)" y="105.413" x="1893.443" style="line-height:0%" font-weight="400" font-family="sans-serif" letter-spacing="0" word-spacing="0" fill="#fff"><tspan style="line-height:1.25;-inkscape-font-specification:'Mightype Script Italic'" y="105.413" x="1893.443" font-style="italic" font-size="215.171" font-family="Mightype Script">israel</tspan></text><g fill="#fff" fill-rule="evenodd"><path d="M1995.118-88.937v-47.373c0-7.736-3.142-15.156-8.733-20.626-5.592-5.471-13.176-8.544-21.084-8.544-7.907 0-15.491 3.073-21.083 8.544-5.591 5.47-8.733 12.89-8.733 20.626v47.373h-9.617v-47.5c0-10.288 4.155-20.154 11.55-27.429 7.395-7.274 17.425-11.36 27.883-11.36 10.459 0 20.489 4.086 27.884 11.36 7.395 7.275 11.55 17.141 11.55 27.429v47.5zM1913.464-165.623c-7.908 0-15.492 3.073-21.084 8.544-5.591 5.47-8.04 12.212-8.04 19.949v47.372h-9.618v-47.5c0-10.288 3.463-19.476 10.858-26.75 7.395-7.275 17.425-11.361 27.884-11.361z" opacity=".995"/><g stroke-width="0"><path d="M2147.267-171.937v47.373c0 7.736-3.141 15.156-8.733 20.627-5.591 5.47-13.175 8.544-21.083 8.544-7.907 0-15.491-3.074-21.083-8.544-5.592-5.47-8.733-12.89-8.733-20.627v-47.373h-9.617v47.5c0 10.288 4.154 20.154 11.55 27.429 7.395 7.274 17.425 11.361 27.883 11.361 10.459 0 20.489-4.087 27.884-11.361 7.395-7.275 11.55-17.14 11.55-27.428v-47.5zM2073.552-103.116c-5.591 5.47-13.175 8.544-21.083 8.544-7.908 0-15.491-3.074-21.083-8.544-5.592-5.471-8.733-12.89-8.733-20.627v-47.373h-9.617v47.5c0 10.288 4.154 20.154 11.55 27.429 7.395 7.274 17.425 11.36 27.883 11.36 10.459 0 20.489-4.086 27.884-11.36z" opacity=".995"/></g><path d="M2273.047-233.347l.346 72.108c.005.933 1.27-1.392 1.945-2.057 7.395-7.274 17.425-11.361 27.884-11.361 10.458 0 20.488 4.087 27.883 11.361 7.396 7.275 11.55 17.14 11.55 27.428v47.5h-9.617v-47.372c0-7.736-3.142-15.156-8.733-20.627-5.592-5.47-13.176-8.544-21.083-8.544-7.908 0-15.492 3.074-21.083 8.544a28.806 28.806 0 0 0-8.733 20.627v47.373h-9.618v-47.5l-.252-84.51-.094-13.055c1.353-47.964-30.88-66.265-61.495-67.5-42.925-1.458-103.651 7.088-169.67 23.575-132.037 32.974-285.537 97.88-363.344 175.876-1.496 1.539-3.987 1.582-5.538.096a3.762 3.762 0 0 1-.026-5.43c79.857-80.052 233.99-144.72 366.987-177.935 57.726-11.003 116.892-25.642 171.86-23.805 43.783-.655 72.56 24.398 70.831 75.208z" opacity=".995"/><path d="M1844.208-98.594c-7.492 5.844-16.98 9.335-27.299 9.335-24.235 0-43.881-19.257-43.881-43.013 0-23.755 19.646-43.012 43.881-43.012 23.35 0 42.439 17.875 43.804 40.426-17.525-.196-35.051-.29-52.576-.418l.172-5.764 41.215-.08c-3.255-14.464-16.675-25.038-32.615-25.038-19.093 0-34.571 15.171-34.571 33.886 0 18.715 15.478 33.887 34.571 33.887 7.278 0 14.03-2.204 19.601-5.97zM2239.485-98.54c-7.493 5.844-16.98 9.336-27.3 9.336-24.234 0-43.88-19.258-43.88-43.013 0-23.756 19.646-43.013 43.88-43.013 23.35 0 42.44 17.875 43.804 40.426-17.525-.196-35.05-.29-52.576-.418l.173-5.764 41.214-.08c-3.254-14.463-16.674-25.038-32.614-25.038-19.093 0-34.571 15.172-34.571 33.887s15.478 33.886 34.57 33.886c7.279 0 14.031-2.204 19.602-5.969z"/><path style="line-height:normal;text-indent:0;text-align:start;text-decoration-line:none;text-decoration-style:solid;text-decoration-color:#000;text-transform:none;isolation:auto;mix-blend-mode:normal" d="M1793.206-274.765c-6.504-.026-12.433 2.048-17.288 5.836-7.06 5.508-12.06 14.05-16.11 24.41-8.099 20.72-12.358 49.249-16.375 78.103-4.018 28.854-7.753 58.017-14.084 79.023-3.165 10.503-7.028 18.914-11.397 24.094-4.368 5.18-8.601 7.268-14.691 6.613a4.757 4.662 0 1 0-1.039 9.268c9.211.991 17.302-3.11 23.062-9.94 5.76-6.831 9.83-16.255 13.188-27.393 6.714-22.277 10.379-51.627 14.385-80.404 4.007-28.777 8.395-56.997 15.834-76.027 3.72-9.516 8.213-16.6 13.152-20.452 4.938-3.853 10.108-5.068 17.833-2.819a4.757 4.662 0 1 0 2.708-8.938c-3.147-.916-6.222-1.362-9.178-1.374z" color="#000" font-weight="400" font-family="sans-serif" white-space="normal" overflow="visible"/></g></g></svg>